<?xml version="1.0" encoding="UTF-8" standalone="no"?>
<!--
SPDX-FileCopyrightText: 2024 Friedrich von Never <friedrich@fornever.me>

SPDX-License-Identifier: MIT
-->

<svg
    width="200"
    height="100"
    viewBox="0 0 52.916666 26.458334"
    version="1.1"
    id="svg5"
    inkscape:version="1.2.2 (732a01da63, 2022-12-09)"
    sodipodi:docname="submarine.svg"
    xmlns:inkscape="http://www.inkscape.org/namespaces/inkscape"
    xmlns:sodipodi="http://sodipodi.sourceforge.net/DTD/sodipodi-0.dtd"
    xmlns="http://www.w3.org/2000/svg"
>
  <sodipodi:namedview
     id="namedview7"
     pagecolor="#000000"
     bordercolor="#666666"
     borderopacity="1.0"
     inkscape:showpageshadow="2"
     inkscape:pageopacity="0"
     inkscape:pagecheckerboard="0"
     inkscape:deskcolor="#d1d1d1"
     inkscape:document-units="mm"
     showgrid="false"
     showguides="true"
     inkscape:zoom="5.17549"
     inkscape:cx="61.443457"
     inkscape:cy="27.823452"
     inkscape:window-width="2286"
     inkscape:window-height="1678"
     inkscape:window-x="4211"
     inkscape:window-y="176"
     inkscape:window-maximized="0"
     inkscape:current-layer="layer1" />
  <defs
     id="defs2" />
  <g
     inkscape:label="Layer 1"
     inkscape:groupmode="layer"
     id="layer1">
    <path
       id="path217"
       style="fill:none;stroke:#ffff00;stroke-width:0.53"
       d="M 25.397141,3.4911643 C 23.578158,4.0176445 23.831655,4.7405173 23.514052,6.6878685 15.497854,8.1103557 9.5438449,13.051444 9.5438449,14.632603 c 0,0.862403 0.287738,1.693895 0.8216551,2.476335 H 9.9329579 L 10.06681,17.524416 H 9.1842397 l -0.931272,4.537192 h 4.0752033 v -3.008603 c 3.234336,2.349987 8.969675,3.912939 15.507064,3.912939 10.10203,0 18.29139,0.263982 18.29139,-8.333341 0,-5.3100003 -3.123902,-7.2384655 -7.893058,-7.9374999 0,-1.6587056 -0.641828,-3.166611 -1.877922,-3.2039388 z"
       sodipodi:nodetypes="ccscccccccssccc" />
    <path
       id="rect1945"
       style="fill:none;stroke:#ffff00;stroke-width:0.529998"
       d="m 6.9042127,11.74079 1.0583334,2.891813 -1.0583334,2.891813 H 10.06681 L 9.0084771,14.632603 10.06681,11.74079 Z" />
    <ellipse
       style="fill:none;stroke:#ffff00;stroke-width:0.529998;stroke-dasharray:none;stroke-opacity:1"
       id="path3099"
       cx="27.158491"
       cy="12.170833"
       rx="2.0243428"
       ry="1.8797469" />
    <ellipse
       style="fill:none;stroke:#ffff00;stroke-width:0.529998;stroke-dasharray:none;stroke-opacity:1"
       id="ellipse3102"
       cx="31.737175"
       cy="12.170833"
       rx="2.0243428"
       ry="1.8797469" />
    <ellipse
       style="fill:none;stroke:#ffff00;stroke-width:0.529998;stroke-dasharray:none;stroke-opacity:1"
       id="ellipse3104"
       cx="36.315857"
       cy="12.170833"
       rx="2.0243428"
       ry="1.8797469" />
    <path
       id="rect3111"
       style="fill:none;stroke:#ffff00;stroke-width:0.474286"
       d="m 24.918987,15.948108 c 0.398998,0 9.237768,0 11.887436,0 2.649668,0 3.927916,3.992203 1.410374,3.992203 -2.517544,0 -12.378526,-0.929336 -13.29781,-2.090501 -0.919284,-1.161165 -0.399,-1.901702 0,-1.901702 z"
       sodipodi:nodetypes="zzzzz" />
  </g>
</svg>
